<mxfile host="app.diagrams.net" modified="2023-11-21T01:15:13.070Z" agent="Mozilla/5.0 (Windows NT 10.0; Win64; x64) AppleWebKit/537.36 (KHTML, like Gecko) Chrome/119.0.0.0 Safari/537.36" etag="W_bDvMpJsx7mkgLfr6mK" version="22.1.3" type="github">
  <diagram name="Page-1" id="efa7a0a1-bf9b-a30e-e6df-94a7791c09e9">
    <mxGraphModel dx="1147" dy="626" grid="1" gridSize="10" guides="1" tooltips="1" connect="1" arrows="1" fold="1" page="1" pageScale="1" pageWidth="826" pageHeight="1169" background="none" math="0" shadow="0">
      <root>
        <mxCell id="0" />
        <mxCell id="1" parent="0" />
        <mxCell id="2zVJqXbOrUwPIhx-QW6m-122" value="OpenFinanceAPI" style="html=1;whiteSpace=wrap;" parent="1" vertex="1">
          <mxGeometry x="1680" y="190" width="110" height="50" as="geometry" />
        </mxCell>
        <mxCell id="2zVJqXbOrUwPIhx-QW6m-123" value="User" style="html=1;whiteSpace=wrap;" parent="1" vertex="1">
          <mxGeometry x="1330" y="430" width="110" height="50" as="geometry" />
        </mxCell>
        <mxCell id="2zVJqXbOrUwPIhx-QW6m-126" value="Transations" style="html=1;whiteSpace=wrap;" parent="1" vertex="1">
          <mxGeometry x="1510" y="430" width="110" height="50" as="geometry" />
        </mxCell>
        <mxCell id="2zVJqXbOrUwPIhx-QW6m-127" value="Account" style="html=1;whiteSpace=wrap;" parent="1" vertex="1">
          <mxGeometry x="1690" y="430" width="110" height="50" as="geometry" />
        </mxCell>
        <mxCell id="2zVJqXbOrUwPIhx-QW6m-144" value="UserManager" style="swimlane;fontStyle=1;align=center;verticalAlign=top;childLayout=stackLayout;horizontal=1;startSize=26;horizontalStack=0;resizeParent=1;resizeParentMax=0;resizeLast=0;collapsible=1;marginBottom=0;whiteSpace=wrap;html=1;" parent="1" vertex="1">
          <mxGeometry x="100" y="186" width="220" height="138" as="geometry" />
        </mxCell>
        <mxCell id="2zVJqXbOrUwPIhx-QW6m-145" value="- users: List&amp;lt;User&amp;gt;" style="text;strokeColor=none;fillColor=none;align=left;verticalAlign=top;spacingLeft=4;spacingRight=4;overflow=hidden;rotatable=0;points=[[0,0.5],[1,0.5]];portConstraint=eastwest;whiteSpace=wrap;html=1;" parent="2zVJqXbOrUwPIhx-QW6m-144" vertex="1">
          <mxGeometry y="26" width="220" height="26" as="geometry" />
        </mxCell>
        <mxCell id="2zVJqXbOrUwPIhx-QW6m-146" value="" style="line;strokeWidth=1;fillColor=none;align=left;verticalAlign=middle;spacingTop=-1;spacingLeft=3;spacingRight=3;rotatable=0;labelPosition=right;points=[];portConstraint=eastwest;strokeColor=inherit;" parent="2zVJqXbOrUwPIhx-QW6m-144" vertex="1">
          <mxGeometry y="52" width="220" height="8" as="geometry" />
        </mxCell>
        <mxCell id="2zVJqXbOrUwPIhx-QW6m-147" value="+login()" style="text;strokeColor=none;fillColor=none;align=left;verticalAlign=top;spacingLeft=4;spacingRight=4;overflow=hidden;rotatable=0;points=[[0,0.5],[1,0.5]];portConstraint=eastwest;whiteSpace=wrap;html=1;" parent="2zVJqXbOrUwPIhx-QW6m-144" vertex="1">
          <mxGeometry y="60" width="220" height="26" as="geometry" />
        </mxCell>
        <mxCell id="2zVJqXbOrUwPIhx-QW6m-149" value="+registerUser()" style="text;strokeColor=none;fillColor=none;align=left;verticalAlign=top;spacingLeft=4;spacingRight=4;overflow=hidden;rotatable=0;points=[[0,0.5],[1,0.5]];portConstraint=eastwest;whiteSpace=wrap;html=1;" parent="2zVJqXbOrUwPIhx-QW6m-144" vertex="1">
          <mxGeometry y="86" width="220" height="26" as="geometry" />
        </mxCell>
        <mxCell id="2zVJqXbOrUwPIhx-QW6m-150" value="+getUser()" style="text;strokeColor=none;fillColor=none;align=left;verticalAlign=top;spacingLeft=4;spacingRight=4;overflow=hidden;rotatable=0;points=[[0,0.5],[1,0.5]];portConstraint=eastwest;whiteSpace=wrap;html=1;" parent="2zVJqXbOrUwPIhx-QW6m-144" vertex="1">
          <mxGeometry y="112" width="220" height="26" as="geometry" />
        </mxCell>
        <mxCell id="2zVJqXbOrUwPIhx-QW6m-151" value="FinanceManager" style="swimlane;fontStyle=1;align=center;verticalAlign=top;childLayout=stackLayout;horizontal=1;startSize=26;horizontalStack=0;resizeParent=1;resizeParentMax=0;resizeLast=0;collapsible=1;marginBottom=0;whiteSpace=wrap;html=1;" parent="1" vertex="1">
          <mxGeometry x="440" y="186" width="220" height="138" as="geometry" />
        </mxCell>
        <mxCell id="2zVJqXbOrUwPIhx-QW6m-152" value="- transactions: List&amp;lt;Transaction&amp;gt;&lt;br&gt;" style="text;strokeColor=none;fillColor=none;align=left;verticalAlign=top;spacingLeft=4;spacingRight=4;overflow=hidden;rotatable=0;points=[[0,0.5],[1,0.5]];portConstraint=eastwest;whiteSpace=wrap;html=1;" parent="2zVJqXbOrUwPIhx-QW6m-151" vertex="1">
          <mxGeometry y="26" width="220" height="26" as="geometry" />
        </mxCell>
        <mxCell id="2zVJqXbOrUwPIhx-QW6m-153" value="" style="line;strokeWidth=1;fillColor=none;align=left;verticalAlign=middle;spacingTop=-1;spacingLeft=3;spacingRight=3;rotatable=0;labelPosition=right;points=[];portConstraint=eastwest;strokeColor=inherit;" parent="2zVJqXbOrUwPIhx-QW6m-151" vertex="1">
          <mxGeometry y="52" width="220" height="8" as="geometry" />
        </mxCell>
        <mxCell id="2zVJqXbOrUwPIhx-QW6m-154" value="+addTransaction()" style="text;strokeColor=none;fillColor=none;align=left;verticalAlign=top;spacingLeft=4;spacingRight=4;overflow=hidden;rotatable=0;points=[[0,0.5],[1,0.5]];portConstraint=eastwest;whiteSpace=wrap;html=1;" parent="2zVJqXbOrUwPIhx-QW6m-151" vertex="1">
          <mxGeometry y="60" width="220" height="26" as="geometry" />
        </mxCell>
        <mxCell id="2zVJqXbOrUwPIhx-QW6m-155" value="+calcularTotalGanhos()" style="text;strokeColor=none;fillColor=none;align=left;verticalAlign=top;spacingLeft=4;spacingRight=4;overflow=hidden;rotatable=0;points=[[0,0.5],[1,0.5]];portConstraint=eastwest;whiteSpace=wrap;html=1;" parent="2zVJqXbOrUwPIhx-QW6m-151" vertex="1">
          <mxGeometry y="86" width="220" height="26" as="geometry" />
        </mxCell>
        <mxCell id="2zVJqXbOrUwPIhx-QW6m-156" value="+calcularTotalDespesas()" style="text;strokeColor=none;fillColor=none;align=left;verticalAlign=top;spacingLeft=4;spacingRight=4;overflow=hidden;rotatable=0;points=[[0,0.5],[1,0.5]];portConstraint=eastwest;whiteSpace=wrap;html=1;" parent="2zVJqXbOrUwPIhx-QW6m-151" vertex="1">
          <mxGeometry y="112" width="220" height="26" as="geometry" />
        </mxCell>
        <mxCell id="2zVJqXbOrUwPIhx-QW6m-158" value="Accounts" style="swimlane;fontStyle=1;align=center;verticalAlign=top;childLayout=stackLayout;horizontal=1;startSize=26;horizontalStack=0;resizeParent=1;resizeParentMax=0;resizeLast=0;collapsible=1;marginBottom=0;whiteSpace=wrap;html=1;" parent="1" vertex="1">
          <mxGeometry x="670" y="430" width="220" height="138" as="geometry" />
        </mxCell>
        <mxCell id="2zVJqXbOrUwPIhx-QW6m-159" value="- user: User" style="text;strokeColor=none;fillColor=none;align=left;verticalAlign=top;spacingLeft=4;spacingRight=4;overflow=hidden;rotatable=0;points=[[0,0.5],[1,0.5]];portConstraint=eastwest;whiteSpace=wrap;html=1;" parent="2zVJqXbOrUwPIhx-QW6m-158" vertex="1">
          <mxGeometry y="26" width="220" height="26" as="geometry" />
        </mxCell>
        <mxCell id="5Q-AV8V6WS_3mqMm1_gA-12" value="- accounts: List&amp;lt;Accounts&amp;gt;" style="text;strokeColor=none;fillColor=none;align=left;verticalAlign=top;spacingLeft=4;spacingRight=4;overflow=hidden;rotatable=0;points=[[0,0.5],[1,0.5]];portConstraint=eastwest;whiteSpace=wrap;html=1;" parent="2zVJqXbOrUwPIhx-QW6m-158" vertex="1">
          <mxGeometry y="52" width="220" height="26" as="geometry" />
        </mxCell>
        <mxCell id="2zVJqXbOrUwPIhx-QW6m-160" value="" style="line;strokeWidth=1;fillColor=none;align=left;verticalAlign=middle;spacingTop=-1;spacingLeft=3;spacingRight=3;rotatable=0;labelPosition=right;points=[];portConstraint=eastwest;strokeColor=inherit;" parent="2zVJqXbOrUwPIhx-QW6m-158" vertex="1">
          <mxGeometry y="78" width="220" height="8" as="geometry" />
        </mxCell>
        <mxCell id="2zVJqXbOrUwPIhx-QW6m-161" value="- connectAccount()" style="text;strokeColor=none;fillColor=none;align=left;verticalAlign=top;spacingLeft=4;spacingRight=4;overflow=hidden;rotatable=0;points=[[0,0.5],[1,0.5]];portConstraint=eastwest;whiteSpace=wrap;html=1;" parent="2zVJqXbOrUwPIhx-QW6m-158" vertex="1">
          <mxGeometry y="86" width="220" height="26" as="geometry" />
        </mxCell>
        <mxCell id="2zVJqXbOrUwPIhx-QW6m-162" value="- getTransactionHistory()" style="text;strokeColor=none;fillColor=none;align=left;verticalAlign=top;spacingLeft=4;spacingRight=4;overflow=hidden;rotatable=0;points=[[0,0.5],[1,0.5]];portConstraint=eastwest;whiteSpace=wrap;html=1;" parent="2zVJqXbOrUwPIhx-QW6m-158" vertex="1">
          <mxGeometry y="112" width="220" height="26" as="geometry" />
        </mxCell>
        <mxCell id="5Q-AV8V6WS_3mqMm1_gA-1" value="User" style="swimlane;fontStyle=1;align=center;verticalAlign=top;childLayout=stackLayout;horizontal=1;startSize=26;horizontalStack=0;resizeParent=1;resizeParentMax=0;resizeLast=0;collapsible=1;marginBottom=0;whiteSpace=wrap;html=1;" parent="1" vertex="1">
          <mxGeometry x="100" y="430" width="220" height="294" as="geometry" />
        </mxCell>
        <mxCell id="5Q-AV8V6WS_3mqMm1_gA-4" value=" - username " style="text;strokeColor=none;fillColor=none;align=left;verticalAlign=top;spacingLeft=4;spacingRight=4;overflow=hidden;rotatable=0;points=[[0,0.5],[1,0.5]];portConstraint=eastwest;whiteSpace=wrap;html=1;" parent="5Q-AV8V6WS_3mqMm1_gA-1" vertex="1">
          <mxGeometry y="26" width="220" height="26" as="geometry" />
        </mxCell>
        <mxCell id="5Q-AV8V6WS_3mqMm1_gA-6" value="- passoword" style="text;strokeColor=none;fillColor=none;align=left;verticalAlign=top;spacingLeft=4;spacingRight=4;overflow=hidden;rotatable=0;points=[[0,0.5],[1,0.5]];portConstraint=eastwest;whiteSpace=wrap;html=1;" parent="5Q-AV8V6WS_3mqMm1_gA-1" vertex="1">
          <mxGeometry y="52" width="220" height="26" as="geometry" />
        </mxCell>
        <mxCell id="ihCxBaPyomV44FxZziwe-20" value="- email" style="text;strokeColor=none;fillColor=none;align=left;verticalAlign=top;spacingLeft=4;spacingRight=4;overflow=hidden;rotatable=0;points=[[0,0.5],[1,0.5]];portConstraint=eastwest;whiteSpace=wrap;html=1;" vertex="1" parent="5Q-AV8V6WS_3mqMm1_gA-1">
          <mxGeometry y="78" width="220" height="26" as="geometry" />
        </mxCell>
        <mxCell id="5Q-AV8V6WS_3mqMm1_gA-5" value="- accounts :&amp;nbsp;" style="text;strokeColor=none;fillColor=none;align=left;verticalAlign=top;spacingLeft=4;spacingRight=4;overflow=hidden;rotatable=0;points=[[0,0.5],[1,0.5]];portConstraint=eastwest;whiteSpace=wrap;html=1;" parent="5Q-AV8V6WS_3mqMm1_gA-1" vertex="1">
          <mxGeometry y="104" width="220" height="26" as="geometry" />
        </mxCell>
        <mxCell id="5Q-AV8V6WS_3mqMm1_gA-2" value="- transations: Transation" style="text;strokeColor=none;fillColor=none;align=left;verticalAlign=top;spacingLeft=4;spacingRight=4;overflow=hidden;rotatable=0;points=[[0,0.5],[1,0.5]];portConstraint=eastwest;whiteSpace=wrap;html=1;" parent="5Q-AV8V6WS_3mqMm1_gA-1" vertex="1">
          <mxGeometry y="130" width="220" height="26" as="geometry" />
        </mxCell>
        <mxCell id="5Q-AV8V6WS_3mqMm1_gA-3" value="" style="line;strokeWidth=1;fillColor=none;align=left;verticalAlign=middle;spacingTop=-1;spacingLeft=3;spacingRight=3;rotatable=0;labelPosition=right;points=[];portConstraint=eastwest;strokeColor=inherit;" parent="5Q-AV8V6WS_3mqMm1_gA-1" vertex="1">
          <mxGeometry y="156" width="220" height="8" as="geometry" />
        </mxCell>
        <mxCell id="5Q-AV8V6WS_3mqMm1_gA-7" value="+getUser()" style="text;strokeColor=none;fillColor=none;align=left;verticalAlign=top;spacingLeft=4;spacingRight=4;overflow=hidden;rotatable=0;points=[[0,0.5],[1,0.5]];portConstraint=eastwest;whiteSpace=wrap;html=1;" parent="5Q-AV8V6WS_3mqMm1_gA-1" vertex="1">
          <mxGeometry y="164" width="220" height="26" as="geometry" />
        </mxCell>
        <mxCell id="5Q-AV8V6WS_3mqMm1_gA-11" value="&lt;div&gt;+setUser&lt;/div&gt;" style="text;strokeColor=none;fillColor=none;align=left;verticalAlign=top;spacingLeft=4;spacingRight=4;overflow=hidden;rotatable=0;points=[[0,0.5],[1,0.5]];portConstraint=eastwest;whiteSpace=wrap;html=1;" parent="5Q-AV8V6WS_3mqMm1_gA-1" vertex="1">
          <mxGeometry y="190" width="220" height="26" as="geometry" />
        </mxCell>
        <mxCell id="ihCxBaPyomV44FxZziwe-8" value="+changePassword" style="text;strokeColor=none;fillColor=none;align=left;verticalAlign=top;spacingLeft=4;spacingRight=4;overflow=hidden;rotatable=0;points=[[0,0.5],[1,0.5]];portConstraint=eastwest;whiteSpace=wrap;html=1;" vertex="1" parent="5Q-AV8V6WS_3mqMm1_gA-1">
          <mxGeometry y="216" width="220" height="26" as="geometry" />
        </mxCell>
        <mxCell id="ihCxBaPyomV44FxZziwe-11" value="+adicionarConta()" style="text;strokeColor=none;fillColor=none;align=left;verticalAlign=top;spacingLeft=4;spacingRight=4;overflow=hidden;rotatable=0;points=[[0,0.5],[1,0.5]];portConstraint=eastwest;whiteSpace=wrap;html=1;" vertex="1" parent="5Q-AV8V6WS_3mqMm1_gA-1">
          <mxGeometry y="242" width="220" height="26" as="geometry" />
        </mxCell>
        <mxCell id="ihCxBaPyomV44FxZziwe-12" value="+adicionarConta()" style="text;strokeColor=none;fillColor=none;align=left;verticalAlign=top;spacingLeft=4;spacingRight=4;overflow=hidden;rotatable=0;points=[[0,0.5],[1,0.5]];portConstraint=eastwest;whiteSpace=wrap;html=1;" vertex="1" parent="5Q-AV8V6WS_3mqMm1_gA-1">
          <mxGeometry y="268" width="220" height="26" as="geometry" />
        </mxCell>
        <mxCell id="5Q-AV8V6WS_3mqMm1_gA-19" value="Transations" style="swimlane;fontStyle=1;align=center;verticalAlign=top;childLayout=stackLayout;horizontal=1;startSize=26;horizontalStack=0;resizeParent=1;resizeParentMax=0;resizeLast=0;collapsible=1;marginBottom=0;whiteSpace=wrap;html=1;" parent="1" vertex="1">
          <mxGeometry x="390" y="430" width="220" height="190" as="geometry" />
        </mxCell>
        <mxCell id="5Q-AV8V6WS_3mqMm1_gA-20" value="- valor" style="text;strokeColor=none;fillColor=none;align=left;verticalAlign=top;spacingLeft=4;spacingRight=4;overflow=hidden;rotatable=0;points=[[0,0.5],[1,0.5]];portConstraint=eastwest;whiteSpace=wrap;html=1;" parent="5Q-AV8V6WS_3mqMm1_gA-19" vertex="1">
          <mxGeometry y="26" width="220" height="26" as="geometry" />
        </mxCell>
        <mxCell id="ihCxBaPyomV44FxZziwe-9" value="- categoria" style="text;strokeColor=none;fillColor=none;align=left;verticalAlign=top;spacingLeft=4;spacingRight=4;overflow=hidden;rotatable=0;points=[[0,0.5],[1,0.5]];portConstraint=eastwest;whiteSpace=wrap;html=1;" vertex="1" parent="5Q-AV8V6WS_3mqMm1_gA-19">
          <mxGeometry y="52" width="220" height="26" as="geometry" />
        </mxCell>
        <mxCell id="ihCxBaPyomV44FxZziwe-21" value="- tipo" style="text;strokeColor=none;fillColor=none;align=left;verticalAlign=top;spacingLeft=4;spacingRight=4;overflow=hidden;rotatable=0;points=[[0,0.5],[1,0.5]];portConstraint=eastwest;whiteSpace=wrap;html=1;" vertex="1" parent="5Q-AV8V6WS_3mqMm1_gA-19">
          <mxGeometry y="78" width="220" height="26" as="geometry" />
        </mxCell>
        <mxCell id="ihCxBaPyomV44FxZziwe-10" value="- date" style="text;strokeColor=none;fillColor=none;align=left;verticalAlign=top;spacingLeft=4;spacingRight=4;overflow=hidden;rotatable=0;points=[[0,0.5],[1,0.5]];portConstraint=eastwest;whiteSpace=wrap;html=1;" vertex="1" parent="5Q-AV8V6WS_3mqMm1_gA-19">
          <mxGeometry y="104" width="220" height="26" as="geometry" />
        </mxCell>
        <mxCell id="5Q-AV8V6WS_3mqMm1_gA-22" value="" style="line;strokeWidth=1;fillColor=none;align=left;verticalAlign=middle;spacingTop=-1;spacingLeft=3;spacingRight=3;rotatable=0;labelPosition=right;points=[];portConstraint=eastwest;strokeColor=inherit;" parent="5Q-AV8V6WS_3mqMm1_gA-19" vertex="1">
          <mxGeometry y="130" width="220" height="8" as="geometry" />
        </mxCell>
        <mxCell id="5Q-AV8V6WS_3mqMm1_gA-23" value="+getTransation()" style="text;strokeColor=none;fillColor=none;align=left;verticalAlign=top;spacingLeft=4;spacingRight=4;overflow=hidden;rotatable=0;points=[[0,0.5],[1,0.5]];portConstraint=eastwest;whiteSpace=wrap;html=1;" parent="5Q-AV8V6WS_3mqMm1_gA-19" vertex="1">
          <mxGeometry y="138" width="220" height="26" as="geometry" />
        </mxCell>
        <mxCell id="5Q-AV8V6WS_3mqMm1_gA-24" value="+setTransation()" style="text;strokeColor=none;fillColor=none;align=left;verticalAlign=top;spacingLeft=4;spacingRight=4;overflow=hidden;rotatable=0;points=[[0,0.5],[1,0.5]];portConstraint=eastwest;whiteSpace=wrap;html=1;" parent="5Q-AV8V6WS_3mqMm1_gA-19" vertex="1">
          <mxGeometry y="164" width="220" height="26" as="geometry" />
        </mxCell>
        <mxCell id="ihCxBaPyomV44FxZziwe-2" style="edgeStyle=orthogonalEdgeStyle;rounded=0;orthogonalLoop=1;jettySize=auto;html=1;" edge="1" parent="1" source="5Q-AV8V6WS_3mqMm1_gA-37" target="2zVJqXbOrUwPIhx-QW6m-122">
          <mxGeometry relative="1" as="geometry" />
        </mxCell>
        <mxCell id="ihCxBaPyomV44FxZziwe-4" style="edgeStyle=orthogonalEdgeStyle;rounded=0;orthogonalLoop=1;jettySize=auto;html=1;" edge="1" parent="1" source="5Q-AV8V6WS_3mqMm1_gA-37" target="2zVJqXbOrUwPIhx-QW6m-127">
          <mxGeometry relative="1" as="geometry">
            <Array as="points">
              <mxPoint x="1670" y="385" />
              <mxPoint x="1745" y="385" />
            </Array>
          </mxGeometry>
        </mxCell>
        <mxCell id="5Q-AV8V6WS_3mqMm1_gA-37" value="FinanceManager" style="html=1;whiteSpace=wrap;" parent="1" vertex="1">
          <mxGeometry x="1610" y="300" width="110" height="50" as="geometry" />
        </mxCell>
        <mxCell id="ihCxBaPyomV44FxZziwe-5" style="edgeStyle=orthogonalEdgeStyle;rounded=0;orthogonalLoop=1;jettySize=auto;html=1;entryX=0;entryY=0.75;entryDx=0;entryDy=0;" edge="1" parent="1" source="5Q-AV8V6WS_3mqMm1_gA-38" target="5Q-AV8V6WS_3mqMm1_gA-37">
          <mxGeometry relative="1" as="geometry" />
        </mxCell>
        <mxCell id="5Q-AV8V6WS_3mqMm1_gA-38" value="UserManager" style="html=1;whiteSpace=wrap;" parent="1" vertex="1">
          <mxGeometry x="1370" y="220" width="130" height="50" as="geometry" />
        </mxCell>
        <mxCell id="ihCxBaPyomV44FxZziwe-1" style="edgeStyle=orthogonalEdgeStyle;rounded=0;orthogonalLoop=1;jettySize=auto;html=1;entryX=0.575;entryY=-0.044;entryDx=0;entryDy=0;entryPerimeter=0;" edge="1" parent="1" source="5Q-AV8V6WS_3mqMm1_gA-38" target="2zVJqXbOrUwPIhx-QW6m-123">
          <mxGeometry relative="1" as="geometry" />
        </mxCell>
        <mxCell id="ihCxBaPyomV44FxZziwe-3" style="edgeStyle=orthogonalEdgeStyle;rounded=0;orthogonalLoop=1;jettySize=auto;html=1;entryX=0.423;entryY=0.008;entryDx=0;entryDy=0;entryPerimeter=0;" edge="1" parent="1" source="5Q-AV8V6WS_3mqMm1_gA-37" target="2zVJqXbOrUwPIhx-QW6m-126">
          <mxGeometry relative="1" as="geometry">
            <Array as="points">
              <mxPoint x="1640" y="385" />
              <mxPoint x="1567" y="385" />
            </Array>
          </mxGeometry>
        </mxCell>
        <mxCell id="ihCxBaPyomV44FxZziwe-7" style="edgeStyle=orthogonalEdgeStyle;rounded=0;orthogonalLoop=1;jettySize=auto;html=1;entryX=0.25;entryY=1;entryDx=0;entryDy=0;" edge="1" parent="1" source="ihCxBaPyomV44FxZziwe-6" target="2zVJqXbOrUwPIhx-QW6m-126">
          <mxGeometry relative="1" as="geometry" />
        </mxCell>
        <mxCell id="ihCxBaPyomV44FxZziwe-6" value="Log" style="html=1;whiteSpace=wrap;" vertex="1" parent="1">
          <mxGeometry x="1500" y="565" width="110" height="40" as="geometry" />
        </mxCell>
        <mxCell id="ihCxBaPyomV44FxZziwe-14" value="OpenFinanceAdapter    " style="swimlane;fontStyle=1;align=center;verticalAlign=top;childLayout=stackLayout;horizontal=1;startSize=26;horizontalStack=0;resizeParent=1;resizeParentMax=0;resizeLast=0;collapsible=1;marginBottom=0;whiteSpace=wrap;html=1;" vertex="1" parent="1">
          <mxGeometry x="710" y="120" width="220" height="78" as="geometry" />
        </mxCell>
        <mxCell id="ihCxBaPyomV44FxZziwe-17" value="+connect(): void " style="text;strokeColor=none;fillColor=none;align=left;verticalAlign=top;spacingLeft=4;spacingRight=4;overflow=hidden;rotatable=0;points=[[0,0.5],[1,0.5]];portConstraint=eastwest;whiteSpace=wrap;html=1;" vertex="1" parent="ihCxBaPyomV44FxZziwe-14">
          <mxGeometry y="26" width="220" height="26" as="geometry" />
        </mxCell>
        <mxCell id="ihCxBaPyomV44FxZziwe-18" value="+fetchData(): Data  " style="text;strokeColor=none;fillColor=none;align=left;verticalAlign=top;spacingLeft=4;spacingRight=4;overflow=hidden;rotatable=0;points=[[0,0.5],[1,0.5]];portConstraint=eastwest;whiteSpace=wrap;html=1;" vertex="1" parent="ihCxBaPyomV44FxZziwe-14">
          <mxGeometry y="52" width="220" height="26" as="geometry" />
        </mxCell>
      </root>
    </mxGraphModel>
  </diagram>
</mxfile>
